{
  "accessors": [
    {
      "bufferView": 2,
      "componentType": 5126,
      "count": 840,
      "max": [
        0.13994599878787994,
        0.6648190021514893,
        0.4127750098705292
      ],
      "min": [
        -0.13994599878787994,
        -0.47114700078964233,
        0.0014979999978095293
      ],
      "type": "VEC3"
    },
    {
      "bufferView": 2,
      "byteOffset": 10080,
      "componentType": 5126,
      "count": 840,
      "max": [
        0.9991279244422913,
        0.994957685470581,
        0.9996924996376038
      ],
      "min": [
        -0.9991279244422913,
        -0.9990879893302917,
        -0.9999672174453735
      ],
      "type": "VEC3"
    },
    {
      "bufferView": 1,
      "componentType": 5126,
      "count": 840,
      "max": [
        0.8645730018615723,
        0.9928939938545227
      ],
      "min": [
        0.01461500022560358,
        0.26691100001335144
      ],
      "type": "VEC2"
    },
    {
      "bufferView": 0,
      "componentType": 5125,
      "count": 4116,
      "type": "SCALAR"
    },
    {
      "bufferView": 2,
      "byteOffset": 20160,
      "componentType": 5126,
      "count": 1458,
      "max": [
        0.12263400107622147,
        -0.004025000147521496,
        0.3331190049648285
      ],
      "min": [
        -0.12263400107622147,
        -0.4759800136089325,
        -0.00012799999967683107
      ],
      "type": "VEC3"
    },
    {
      "bufferView": 2,
      "byteOffset": 37656,
      "componentType": 5126,
      "count": 1458,
      "max": [
        1.0,
        0.9932829737663269,
        0.9984795451164246
      ],
      "min": [
        -1.0,
        -1.0,
        -0.9987887740135193
      ],
      "type": "VEC3"
    },
    {
      "bufferView": 3,
      "componentType": 5126,
      "count": 1458,
      "max": [
        0.9997694492340088,
        0.9993371367454529,
        0.999221682548523,
        1.0
      ],
      "min": [
        -0.9997694492340088,
        -0.999337375164032,
        -0.9983600378036499,
        -1.0
      ],
      "type": "VEC4"
    },
    {
      "bufferView": 1,
      "byteOffset": 6720,
      "componentType": 5126,
      "count": 1458,
      "max": [
        0.9950399994850159,
        1.0000159740447998
      ],
      "min": [
        0.002492000116035342,
        0.0019729998894035816
      ],
      "type": "VEC2"
    },
    {
      "bufferView": 0,
      "byteOffset": 16464,
      "componentType": 5125,
      "count": 6180,
      "type": "SCALAR"
    }
  ],
  "asset": {
    "extras": {
      "author": "gabrielsemiceki9 (https://sketchfab.com/gabrielsemiceki9)",
      "license": "CC-BY-4.0 (http://creativecommons.org/licenses/by/4.0/)",
      "source": "https://sketchfab.com/3d-models/scrat-ice-age-2-apae-jataizinho-19-12-2018-ca2c8e5a1033405a8e235ff04e29171e",
      "title": "Scrat (Ice Age 2 APAE Jataizinho 19-12-2018)"
    },
    "generator": "Sketchfab-16.45.0",
    "version": "2.0"
  },
  "bufferViews": [
    {
      "buffer": 0,
      "byteLength": 41184,
      "name": "floatBufferViews",
      "target": 34963
    },
    {
      "buffer": 0,
      "byteLength": 18384,
      "byteOffset": 41184,
      "byteStride": 8,
      "name": "floatBufferViews",
      "target": 34962
    },
    {
      "buffer": 0,
      "byteLength": 55152,
      "byteOffset": 59568,
      "byteStride": 12,
      "name": "floatBufferViews",
      "target": 34962
    },
    {
      "buffer": 0,
      "byteLength": 23328,
      "byteOffset": 114720,
      "byteStride": 16,
      "name": "floatBufferViews",
      "target": 34962
    }
  ],
  "buffers": [
    {
      "byteLength": 138048,
      "uri": "scene.bin"
    }
  ],
  "images": [
    {
      "uri": "textures/ScratBody_baseColor.png"
    },
    {
      "uri": "textures/ScratParts_baseColor.png"
    },
    {
      "uri": "textures/ScratParts_normal.png"
    }
  ],
  "materials": [
    {
      "doubleSided": true,
      "name": "ScratBody",
      "pbrMetallicRoughness": {
        "baseColorTexture": {
          "index": 0
        },
        "metallicFactor": 0.0
      }
    },
    {
      "doubleSided": true,
      "name": "ScratParts",
      "normalTexture": {
        "index": 2
      },
      "pbrMetallicRoughness": {
        "baseColorTexture": {
          "index": 1
        },
        "metallicFactor": 0.0
      }
    }
  ],
  "meshes": [
    {
      "name": "Object_0",
      "primitives": [
        {
          "attributes": {
            "NORMAL": 1,
            "POSITION": 0,
            "TEXCOORD_0": 2
          },
          "indices": 3,
          "material": 0,
          "mode": 4
        }
      ]
    },
    {
      "name": "Object_1",
      "primitives": [
        {
          "attributes": {
            "NORMAL": 5,
            "POSITION": 4,
            "TANGENT": 6,
            "TEXCOORD_0": 7
          },
          "indices": 8,
          "material": 1,
          "mode": 4
        }
      ]
    }
  ],
  "nodes": [
    {
      "children": [
        1
      ],
      "matrix": [
        1.0,
        0.0,
        0.0,
        0.0,
        0.0,
        2.220446049250313e-16,
        -1.0,
        0.0,
        0.0,
        1.0,
        2.220446049250313e-16,
        0.0,
        0.0,
        0.0,
        0.0,
        1.0
      ],
      "name": "Sketchfab_model"
    },
    {
      "children": [
        2,
        3
      ],
      "name": "Scrat (Ice Age 2 APAE Jataizinho 19-12-2018).obj.cleaner.materialmerger.gles"
    },
    {
      "mesh": 0,
      "name": "Object_2"
    },
    {
      "mesh": 1,
      "name": "Object_3"
    }
  ],
  "samplers": [
    {
      "magFilter": 9729,
      "minFilter": 9987,
      "wrapS": 10497,
      "wrapT": 10497
    }
  ],
  "scene": 0,
  "scenes": [
    {
      "name": "Sketchfab_Scene",
      "nodes": [
        0
      ]
    }
  ],
  "textures": [
    {
      "sampler": 0,
      "source": 0
    },
    {
      "sampler": 0,
      "source": 1
    },
    {
      "sampler": 0,
      "source": 2
    }
  ]
}
